<?xml version="1.0" encoding="utf-8"?>
<!-- Generator: Adobe Illustrator 27.5.0, SVG Export Plug-In . SVG Version: 6.00 Build 0)  -->
<svg version="1.1" id="_x3C_Layer_x3E_" xmlns="http://www.w3.org/2000/svg" xmlns:xlink="http://www.w3.org/1999/xlink" x="0px"
	 y="0px" viewBox="0 0 2760 1840" style="enable-background:new 0 0 2760 1840;" xml:space="preserve">
<rect style="fill:#FFFFFF;" width="2760" height="1840"/>
<g>
	<g>
		<path style="fill:#2A4E96;" d="M2668.086,1246.352c-9.809,56.817-43.896,124.283-114.706,206.497H263.573
			c0,0-133.908-70.894-155.124-206.497c-9.612-61.44-8.95-204.057,50.66-291.492c174.15-255.433,206.718-146.608,259.295-508.937
			c43.296-298.36,446.109-229.898,825.753-90.666c342.156,125.483,440.234-20.29,712.328-22.96
			c466.214-4.575,656.533,294.227,537.188,451.719C2359.484,961.121,2710.342,1001.935,2668.086,1246.352z"/>
	</g>
	<g>
		<rect x="534.696" y="569.184" style="fill:#12253F;" width="1599.966" height="208.881"/>
	</g>
	<g>
		<rect x="722.831" y="904.865" style="fill:#12253F;" width="1271.425" height="118.121"/>
	</g>
	<g>
		<path style="fill:#994D3C;" d="M1293.43,909.679h-224.094c-23.278,0-42.149-18.871-42.149-42.149v-336.26
			c0-23.278,18.871-42.149,42.149-42.149h224.094c23.279,0,42.149,18.871,42.149,42.149v336.26
			C1335.579,890.808,1316.709,909.679,1293.43,909.679z"/>
	</g>
	<g>
		<g>
			<path style="fill:#12253F;" d="M1330.436,807.701h59.124c5.294,0,9.587-4.293,9.587-9.587v-22.403
				c0-5.295-4.293-9.586-9.587-9.586h-59.124c-5.296,0-9.588,4.291-9.588,9.586v22.403
				C1320.848,803.408,1325.14,807.701,1330.436,807.701z"/>
		</g>
		<g>
			
				<rect x="1334.353" y="793.446" transform="matrix(-1 -1.224647e-16 1.224647e-16 -1 2721.2451 1717.6514)" style="fill:#12253F;" width="52.54" height="130.759"/>
		</g>
	</g>
	<g>
		<rect x="980.07" y="924.205" style="fill:#12253F;" width="406.822" height="38.411"/>
	</g>
	<g>
		<path style="fill:#BC5F46;" d="M1342.332,934.778h-330.023c-7.511,0-13.656-6.146-13.656-13.656v-61.659
			c0-7.511,6.146-13.655,13.656-13.655h330.023c7.511,0,13.656,6.144,13.656,13.655v61.659
			C1355.988,928.633,1349.843,934.778,1342.332,934.778z"/>
	</g>
	<g>
		<path style="fill:#994D3C;" d="M859.85,909.679H675.283c-21.47,0-38.873-17.404-38.873-38.874V527.994
			c0-21.47,17.403-38.874,38.873-38.874H859.85c21.469,0,38.874,17.404,38.874,38.874v342.811
			C898.724,892.274,881.318,909.679,859.85,909.679z"/>
	</g>
	<g>
		<g>
			<path style="fill:#12253F;" d="M645.243,807.701h-56.649c-5.198,0-9.412-4.214-9.412-9.412v-22.752
				c0-5.199,4.214-9.412,9.412-9.412h56.649c5.198,0,9.412,4.213,9.412,9.412v22.752
				C654.655,803.487,650.441,807.701,645.243,807.701z"/>
		</g>
		<g>
			<rect x="590.994" y="793.446" style="fill:#12253F;" width="50.644" height="130.759"/>
		</g>
	</g>
	<g>
		<g>
			
				<rect x="917.677" y="778.065" transform="matrix(-1 -1.224647e-16 1.224647e-16 -1 1944.8633 1702.2697)" style="fill:#12253F;" width="109.51" height="146.141"/>
		</g>
	</g>
	<g>
		<rect x="590.994" y="924.205" style="fill:#12253F;" width="392.144" height="38.411"/>
	</g>
	<g>
		<path style="fill:#BC5F46;" d="M886.425,934.778H621.203c-6.764,0-12.298-5.534-12.298-12.299v-64.374
			c0-6.764,5.534-12.298,12.298-12.298h265.222c6.764,0,12.299,5.534,12.299,12.298v64.374
			C898.724,929.244,893.188,934.778,886.425,934.778z"/>
	</g>
	<g>
		<path style="fill:#994D3C;" d="M1693.826,909.679h-224.094c-23.278,0-42.149-18.871-42.149-42.149v-336.26
			c0-23.278,18.871-42.149,42.149-42.149h224.094c23.278,0,42.149,18.871,42.149,42.149v336.26
			C1735.976,890.808,1717.104,909.679,1693.826,909.679z"/>
	</g>
	<g>
		<g>
			<path style="fill:#12253F;" d="M1436.924,807.701H1377.8c-5.295,0-9.587-4.293-9.587-9.587v-22.403
				c0-5.295,4.292-9.586,9.587-9.586h59.124c5.296,0,9.588,4.291,9.588,9.586v22.403
				C1446.512,803.408,1442.22,807.701,1436.924,807.701z"/>
		</g>
		<g>
			<rect x="1380.467" y="793.446" style="fill:#12253F;" width="52.539" height="130.759"/>
		</g>
	</g>
	<g>
		<rect x="1380.467" y="924.205" style="fill:#12253F;" width="406.822" height="38.411"/>
	</g>
	<g>
		<path style="fill:#BC5F46;" d="M1742.729,934.778h-330.023c-7.511,0-13.656-6.146-13.656-13.656v-61.659
			c0-7.511,6.146-13.655,13.656-13.655h330.023c7.512,0,13.656,6.144,13.656,13.655v61.659
			C1756.385,928.633,1750.24,934.778,1742.729,934.778z"/>
	</g>
	<g>
		<path style="fill:#994D3C;" d="M2088.029,909.679h-224.094c-23.279,0-42.149-18.871-42.149-42.149v-336.26
			c0-23.278,18.87-42.149,42.149-42.149h224.094c23.278,0,42.15,18.871,42.15,42.149v336.26
			C2130.18,890.808,2111.308,909.679,2088.029,909.679z"/>
	</g>
	<g>
		<g>
			<rect x="1735.976" y="756.486" style="fill:#12253F;" width="108.358" height="167.719"/>
		</g>
	</g>
	<g>
		<g>
			<path style="fill:#12253F;" d="M2125.034,807.701h59.125c5.294,0,9.586-4.293,9.586-9.587v-22.403
				c0-5.295-4.292-9.586-9.586-9.586h-59.125c-5.295,0-9.587,4.291-9.587,9.586v22.403
				C2115.447,803.408,2119.739,807.701,2125.034,807.701z"/>
		</g>
		<g>
			
				<rect x="2128.952" y="793.446" transform="matrix(-1 -1.224647e-16 1.224647e-16 -1 4310.4443 1717.6514)" style="fill:#12253F;" width="52.54" height="130.759"/>
		</g>
	</g>
	<g>
		<rect x="1774.669" y="924.205" style="fill:#12253F;" width="406.823" height="38.411"/>
	</g>
	<g>
		<path style="fill:#BC5F46;" d="M2136.932,934.778h-330.023c-7.511,0-13.655-6.146-13.655-13.656v-61.659
			c0-7.511,6.145-13.655,13.655-13.655h330.023c7.512,0,13.656,6.144,13.656,13.655v61.659
			C2150.588,928.633,2144.443,934.778,2136.932,934.778z"/>
	</g>
	<g>
		<path style="fill:#233862;" d="M2668.086,1246.352c-9.809,68.587-43.896,150.027-114.706,249.273H263.573
			c0,0-133.908-85.579-155.124-249.273H2668.086z"/>
	</g>
	<g>
		<path style="fill:#191E30;" d="M2625.723,1510.153H176.991c-2.762,0-5.021-2.26-5.021-5.021v-11.147
			c0-2.763,2.259-5.021,5.021-5.021h2448.731c2.762,0,5.021,2.259,5.021,5.021v11.147
			C2630.744,1507.894,2628.484,1510.153,2625.723,1510.153z"/>
	</g>
	<g>
		<path style="fill:#E26F47;" d="M1548.858,1189.605h-362.811c-36.306,0-65.737-29.432-65.737-65.737V617.079
			c0-36.306,29.432-65.738,65.737-65.738h362.811c36.306,0,65.738,29.433,65.738,65.738v506.789
			C1614.597,1160.174,1585.164,1189.605,1548.858,1189.605z"/>
	</g>
	<g>
		<rect x="1044.793" y="965.029" style="fill:#12253F;" width="84.211" height="246.623"/>
	</g>
	<g>
		
			<rect x="1614.597" y="965.37" transform="matrix(-1 -1.224647e-16 1.224647e-16 -1 3313.4033 2196.8125)" style="fill:#12253F;" width="84.21" height="266.072"/>
	</g>
	<g>
		<rect x="1044.793" y="1211.652" style="fill:#12253F;" width="652.048" height="58.296"/>
	</g>
	<g>
		<path style="fill:#F77D48;" d="M1626.01,1227.699h-530.135c-11.714,0-21.298-9.584-21.298-21.299v-92.431
			c0-11.714,9.584-21.298,21.298-21.298h530.135c11.714,0,21.299,9.584,21.299,21.298v92.431
			C1647.309,1218.115,1637.724,1227.699,1626.01,1227.699z"/>
	</g>
	<g>
		<g>
			<polygon style="fill:#FFFFFF;" points="988.508,833.913 982.178,833.637 984.644,776.94 1012,759.295 1015.435,764.621 
				990.831,780.489 			"/>
		</g>
		<g>
			<polygon style="fill:#8C9DF4;" points="944.826,966.142 1003.054,966.142 1009.919,832.535 939.201,832.535 			"/>
		</g>
		<g>
			
				<rect x="933.742" y="825.126" transform="matrix(-1 -1.224647e-16 1.224647e-16 -1 1950.333 1665.2705)" style="fill:#FFFFFF;" width="82.849" height="15.019"/>
		</g>
	</g>
	<g>
		<path style="fill:#E26F47;" d="M926.606,615.995v508.953c0,35.715-28.952,64.655-64.655,64.655H513.147
			c-35.704,0-64.656-28.94-64.656-64.655V615.995c0-35.704,28.952-64.656,64.656-64.656H861.95
			C897.653,551.339,926.606,580.291,926.606,615.995z"/>
	</g>
	<g>
		<g>
			
				<rect x="924.702" y="959.68" transform="matrix(-1 -1.224647e-16 1.224647e-16 -1 1977.7529 2229.6279)" style="fill:#12253F;" width="128.349" height="310.268"/>
		</g>
		<g>
			<path style="fill:#2B478B;" d="M918.152,970.51h92.614c7.945,0,14.387-6.441,14.387-14.387v-31.62
				c0-7.945-6.441-14.388-14.387-14.388h-92.614c-7.945,0-14.387,6.442-14.387,14.388v31.62
				C903.766,964.068,910.207,970.51,918.152,970.51z"/>
		</g>
	</g>
	<g>
		<rect x="375.45" y="1211.652" style="fill:#12253F;" width="630.706" height="58.296"/>
	</g>
	<g>
		<path style="fill:#F77D48;" d="M937.299,1227.699H425.206c-11.521,0-20.947-9.426-20.947-20.946v-93.134
			c0-11.521,9.427-20.947,20.947-20.947h512.093c11.52,0,20.945,9.426,20.945,20.947v93.134
			C958.244,1218.273,948.819,1227.699,937.299,1227.699z"/>
	</g>
	<g>
		<path style="fill:#E26F47;" d="M2297.065,616.49v507.975c0,35.974-29.165,65.139-65.149,65.139h-355.095
			c-4.999,0-9.852-0.562-14.525-1.629c-28.985-6.606-50.612-32.536-50.612-63.51V616.49c0-35.986,29.164-65.151,65.138-65.151
			h355.095c27.02,0,50.196,16.448,60.061,39.884C2295.257,598.997,2297.065,607.535,2297.065,616.49z"/>
	</g>
	<g>
		<rect x="1690.023" y="971.748" style="fill:#12253F;" width="130.196" height="298.2"/>
	</g>
	<g>
		<g>
			<path style="fill:#12253F;" d="M2290.035,990.373h90.92c8.924,0,16.157-7.233,16.157-16.158v-42.717
				c0-8.923-7.233-16.157-16.157-16.157h-90.92c-8.924,0-16.158,7.234-16.158,16.157v42.717
				C2273.877,983.14,2281.111,990.373,2290.035,990.373z"/>
		</g>
		<g>
			
				<rect x="2295.133" y="964.648" transform="matrix(-1 -1.224647e-16 1.224647e-16 -1 4692.2451 2234.5957)" style="fill:#12253F;" width="101.979" height="305.299"/>
		</g>
	</g>
	<g>
		<rect x="1737.527" y="1211.652" style="fill:#12253F;" width="640.299" height="58.296"/>
	</g>
	<g>
		<path style="fill:#AA5943;" d="M2297.065,940.238v-64.375c8.156-1.887,13.707-3.403,14.729-4.403
			c1.955-1.888-5.539-14.155-14.729-28.907V634.184c-5.673-11.527-8.011-24.469-5.089-42.961
			c-9.864-23.436-33.041-39.884-60.061-39.884h-133.794c-24.053,51.196-33.288,111.111,1.023,132.963
			c-4.956,4.122-8.629,8.819-10.112,14.122c-3.764,13.357-19.031,55.981-33.749,96.293c-11.1,30.412-32.423,56.318-60.542,73.552
			l-59.848,36.704c-15.223,4.438-38.95,12.021-42.411,17.088l-20.38,26.784c0,0,2.156,1.259,5.448-0.606
			c0.989-0.563,2.292-1.607,3.641-2.809c-2.191,5.752-3.696,10.874-3.528,13.267c0.247,3.404,4.708-0.831,9.46-5.976l-0.135,5.718
			c0,0,2.18-0.663,4.506-3.64c1.146-1.461,2.471-6.269,3.517-10.73c0.707-0.741,1.348-1.382,1.898-1.864
			c3.314-2.978,15.335-4.719,21.244-5.651c0.416-0.067,0.798-0.146,1.202-0.214c-0.157,0.225-0.326,0.472-0.494,0.719
			c-28.075,25.267-69.104,87.687-107.179,151.478v35.929c0,30.974,21.627,56.903,50.612,63.51
			c21.66-20.178,41.747-40.052,54.375-55.162l18.38,47.972l3.314,8.819h83.193c-6.314-38.198-14.685-79.778-24.986-111.763
			c-2.652-8.257-5.438-15.852-8.359-22.615c30.604,14.481,95.687,45.669,155.32,45.669c29.559,0,120.559,0.057,120.559,0.057
			c0-0.012,2.225,0,2.236,0c13.751-0.214,21.818-6.729,25.873-16.897c2.033-5.079,3.64-10.37,4.864-15.818
			c5.112-22.459,3.921-47.523,0-71.094c-3.526-21.199-9.245-41.175-14.582-56.971
			C2287.337,940.261,2292.225,940.283,2297.065,940.238z M2297.065,842.553c-1.382-2.213-2.798-4.471-4.224-6.774
			c-0.281,1.303-0.539,2.573-0.787,3.82c-3.438,16.941-4.459,28.749-5.01,38.489c3.629-0.786,6.999-1.527,10.021-2.225
			c8.156-1.887,13.707-3.403,14.729-4.403C2313.75,869.572,2306.256,857.305,2297.065,842.553z M2100.381,871.695
			c-16.414,16.909-44.636,29.975-72.599,38.738c-19.481,6.101-38.827,10.1-53.982,11.863c29.614-0.033,69.925,3.628,110.796,10.347
			c9.562,1.561,19.11-1.359,25.998-7.516C2102.875,921.376,2101.426,923.229,2100.381,871.695z M1950.162,922.758
			c-1.034,0.19-2.157,0.505-3.27,0.999c1.888-0.247,3.888-0.46,6-0.651C1951.903,923.016,1950.993,922.903,1950.162,922.758z"/>
	</g>
	<g>
		<path style="fill:#F77D48;" d="M2307.696,1227.699h-519.432c-11.82,0-21.491-9.671-21.491-21.49v-97.016
			c0-11.82,9.671-21.491,21.491-21.491h519.432c11.819,0,21.49,9.671,21.49,21.491v97.016
			C2329.187,1218.028,2319.516,1227.699,2307.696,1227.699z"/>
	</g>
	<g>
		<g>
			<path style="fill:#FFB27D;" d="M1770.198,1314.356c-2.375,11.876-102.869-18.654-88.604-20.298
				c1.793-0.201,3.596-0.423,5.397-0.645c16.105-2.021,27.899-12.414,42.528-20.949c13.857-8.084,34.536-41.022,34.536-41.022
				l36.912,2.924c0,0-19.37,29.419-26.862,42.211c-4.405,7.522-4.172,17.472-3.622,25.153
				C1770.769,1305.906,1771.041,1310.174,1770.198,1314.356z"/>
		</g>
		<g>
			<path style="fill:#2A4E96;" d="M1731.985,1319.63c-18.911-4.621-14.416,0.872-41.331-2.107s-35.068-13.016-35.89-17.017
				c-0.735-3.551,12.564-4.804,26.829-6.447l0.133,0.274c0,0,16.142,11.445,38.546,11.981c18.26,0.443,37.601-4.787,50.211-4.584
				c0.285,4.176,0.558,8.443-0.285,12.626C1767.823,1326.232,1750.896,1324.251,1731.985,1319.63z"/>
		</g>
		<g>
			<path style="fill:#FFB27D;" d="M2081.718,1345.938c7.333,9.637-82.041,64.804-73.837,53.019c1.035-1.478,2.061-2.976,3.086-4.475
				c9.14-13.414,9.148-29.134,12.425-45.751c3.104-15.739-22.602-73.586-22.602-73.586l41.294-5.197c0,0,5.395,34.935,10.03,49.015
				c2.728,8.281,14.196,13.74,20.322,18.409C2075.756,1339.921,2079.137,1342.54,2081.718,1345.938z"/>
		</g>
		<g>
			<path style="fill:#2A4E96;" d="M2060.393,1378.083c-15.977,11.125-8.883,11.389-28.923,29.602
				c-20.039,18.213-32.958,17.688-36.503,15.657c-3.148-1.798,4.71-12.6,12.914-24.385l0.294,0.082c0,0,19.26-4.534,34.483-20.98
				c12.412-13.399,21.283-31.364,29.778-40.687c3.319,2.549,6.7,5.168,9.281,8.566
				C2089.051,1355.575,2076.368,1366.958,2060.393,1378.083z"/>
		</g>
		<g>
			<path style="fill:#163560;" d="M1918.771,1071.75l37.714,101.481l49.235,132.506c0,0,13.362,1.29,26.158-2.392
				c11.779-3.404,25.297-12.313,25.297-12.313S2043.504,1148.76,2018,1067.09c-6.535-20.964-13.861-37.921-21.943-47.465
				C1956.52,972.9,1918.771,1071.75,1918.771,1071.75z"/>
		</g>
		<g>
			<path style="fill:#2A4E96;" d="M1957.115,910.584c22.267-7.182,84.935-4.032,148.912,6.804
				c12.738,2.157,25.464-3.912,31.873-15.13l0,0l152.899-11.94c0,0,50.454,111.888,22.832,183.181
				c-4.06,10.479-12.127,17.199-25.878,17.421c-0.006,0.006-2.228-0.007-2.233,0c0,0-91.003-0.054-120.552-0.054
				c-76.039,0-160.925-52.269-171.906-54.466c-17.974-3.595-25.162,32.354-43.137,70.099
				c-17.974,37.744-168.952,167.154-168.952,167.154s-23.204,0.229-32.79-3.365c-10.309-3.865-14.08-8.887-14.08-8.887
				S1901.397,928.558,1957.115,910.584z"/>
		</g>
		<g>
			<path style="fill:#233862;" d="M2128.492,665.55c45.348,42.507,137.014,130.027,137.669,129.78c0,0,35.558,24.858,61.656,15.729
				c43.498-15.214,80.405-76.609,26.974-151.175c-26.647-37.19-48.979-50.283-41.019-96.781
				c4.317-25.225-8.662-115.423-66.728-122.198c-4.854-0.566-34.076-6.585-55.597-1.46
				C2136.606,452.505,2052.27,634.133,2128.492,665.55z"/>
		</g>
		<g>
			<path style="fill:#FFB27D;" d="M2179.02,652.104c-0.271,0.091,23.639,15.713,43.129,12.424c18.332-3.078,37.727-27,37.485-27.075
				c-7.406-2.259-13.962-10.909-9.332-55.518l-3.483,0.33l-58.582,5.621c0,0-0.504,18.208-2.171,35.242
				C2184.671,637.431,2182.445,650.905,2179.02,652.104z"/>
		</g>
		<g>
			<path style="fill:#ED975D;" d="M2188.236,587.886c0,0-0.504,18.208-2.171,35.242c32.234,2.313,52.163-25.308,60.753-40.863
				L2188.236,587.886z"/>
		</g>
		<g>
			<path style="fill:#FFB27D;" d="M2175.887,602.935c0,0,75.926,8.873,80.725-38.496c4.797-47.367,17.828-78.124-30.447-85.791
				c-48.273-7.669-59.537,9.451-64.984,24.872S2156.259,599.407,2175.887,602.935z"/>
		</g>
		<g>
			<path style="fill:#233862;" d="M2200.536,483.061c0,0-19.599,11.191-27.426,21.203c-7.554,9.661-15.624,35.318-14.456,46.624
				c0,0-12.346-53.879,7.426-73.482C2187.045,456.619,2200.536,483.061,2200.536,483.061z"/>
		</g>
		<g>
			<path style="fill:#AEC3FF;" d="M2120.638,777.783c2.291,153.363,0.629,121.315,17.404,135.868
				c4.042,3.504,15.407,5.592,30.363,6.58c47.026,3.121,129.693-4.627,132.837-13.317c10.848-30.07,3.189-39.413,12.24-85.451
				c0.943-4.896,2.111-10.196,3.48-15.968c7.546-31.62,14.89-42.378-11.881-93.177c-24.276-46.017-50.49-82.776-52.759-81.429
				c-64.05,38.021-67.842,5.198-67.842,5.198S2119.515,702.976,2120.638,777.783z"/>
		</g>
		<g>
			<path style="fill:#2A4E96;" d="M1956.485,1173.231l50.356,138.026c0,0,18.09,5.892,31.265,3.976
				c13.422-1.951,20.782-9.277,20.782-9.277S2043.504,1148.76,2018,1067.09L1956.485,1173.231z"/>
		</g>
		<g>
			<path style="fill:#8FAEF2;" d="M2168.405,920.231c47.026,3.121,129.693-4.627,132.837-13.317
				c10.848-30.07,3.189-39.413,12.24-85.451l-22.057-50.221c0,0,3.124,57.475-17.851,76.182
				c-20.953,18.708-85.878,36.112-96.074,51.743C2172.582,906.667,2169.349,914.19,2168.405,920.231z"/>
		</g>
		<g>
			<g>
				<path style="fill:#FFB27D;" d="M1969.188,885.164c0,0-50.121,13.538-55.274,21.318c-5.153,7.78-15.248,31.564-14.817,37.774
					c0.431,6.209,14.113-12.285,19.24-17.012c3.319-3.062,15.341-4.859,21.254-5.821c14.897-2.421,22.082-9.237,27.668-12.63
					c3.745-2.274,8.292-1.852,8.292-1.852L1969.188,885.164z"/>
			</g>
			<g>
				<path style="fill:#FFB27D;" d="M1918.29,920.113c0,0-3.045,17.062-5.368,20.126c-2.323,3.064-4.505,3.746-4.505,3.746
					l0.356-14.728L1918.29,920.113z"/>
			</g>
			<g>
				<path style="fill:#FFB27D;" d="M1913.913,906.482l-20.381,27.612c0,0,2.161,1.294,5.446-0.625
					c3.287-1.919,10.15-9.478,10.15-9.478L1913.913,906.482z"/>
			</g>
			<g>
				<path style="fill:#FFB27D;" d="M1967.258,908.794c0,0-4.648,11.279-13.924,15.324c-9.275,4.044-16.086,10.116-17.576,7.932
					c-1.49-2.185,7.023-13.678,7.023-13.678L1967.258,908.794z"/>
			</g>
		</g>
		<g>
			<path style="fill:#AEC3FF;" d="M2184.484,636.083l-24.469,81.956c0,0-15.932,112.572-31.412,128.053
				c-1.944,2.921-4.225,5.741-6.786,8.46c-16.413,17.435-44.636,30.907-72.61,39.939c-35.32,11.403-70.238,15.729-80.429,11.987
				c-3.685-1.349-14.761-16.155-14.761-16.155l62.148-39.3c28.121-17.773,49.444-44.489,60.545-75.834
				c14.717-41.567,29.984-85.507,33.748-99.28C2118.199,647.531,2184.484,636.083,2184.484,636.083z"/>
		</g>
		<g>
			<g>
				<path style="fill:#FFFFFF;" d="M2196.785,556.144l26.561,2.522c3.641,0.346,6.903-2.35,7.248-5.99l1.576-16.596
					c0.346-3.641-2.35-6.902-5.991-7.247l-26.561-2.523c-3.64-0.347-6.902,2.35-7.247,5.99l-1.576,16.594
					C2190.449,552.535,2193.145,555.798,2196.785,556.144z"/>
			</g>
			<g>
				<path style="fill:#FFFFFF;" d="M2153.697,551.972l21.261,2.02c3.334,0.316,6.321-2.153,6.639-5.488l1.681-17.708
					c0.317-3.334-2.151-6.321-5.486-6.638l-21.262-2.02c-3.334-0.316-6.321,2.152-6.639,5.487l-1.682,17.708
					C2147.893,548.667,2150.361,551.655,2153.697,551.972z"/>
			</g>
			<g>
				<polygon style="fill:#FFFFFF;" points="2168.929,529.289 2226.313,534.738 2225.388,528.758 2169.506,523.222 				"/>
			</g>
			<g>
				<polygon style="fill:#FFFFFF;" points="2253.168,541.138 2230.655,531.204 2228.727,542.943 2250.92,545.609 				"/>
			</g>
			<g>
				<path style="fill:#474FEA;" d="M2201.242,552.002l18.506,1.757c2.537,0.242,4.81-1.637,5.05-4.173l1.099-11.563
					c0.241-2.537-1.638-4.809-4.174-5.051l-18.507-1.757c-2.536-0.241-4.81,1.638-5.05,4.174l-1.098,11.563
					C2196.827,549.489,2198.706,551.761,2201.242,552.002z"/>
			</g>
			<g>
				<path style="fill:#F96058;" d="M2157.036,547.725l15.728,1.494c2.378,0.225,4.509-1.537,4.734-3.914l1.152-12.139
					c0.226-2.378-1.535-4.509-3.912-4.734l-15.729-1.494c-2.378-0.225-4.508,1.536-4.734,3.913l-1.152,12.139
					C2152.896,545.368,2154.658,547.499,2157.036,547.725z"/>
			</g>
		</g>
		<g>
			<g>
				<polygon style="fill:#FFFFFF;" points="2189.55,834.409 2185.131,831.698 2208.071,794.303 2239.31,783.69 2240.978,788.598 
					2211.51,798.609 				"/>
			</g>
			<g>
				<polygon style="fill:#F77D48;" points="2141.352,927.406 2193.509,932.569 2209.445,834.315 2146.102,828.045 				"/>
			</g>
			<g>
				
					<rect x="2141.023" y="825.724" transform="matrix(-0.9951 -0.0985 0.0985 -0.9951 4264.124 1873.1731)" style="fill:#FFFFFF;" width="74.572" height="11.168"/>
			</g>
		</g>
		<g>
			<path style="fill:#FFB27D;" d="M2244.039,547.879c0,0,2.528-10.673,10.252-8.427c7.723,2.248,6.6,12.921-1.123,16.572
				C2245.443,559.676,2244.039,547.879,2244.039,547.879z"/>
		</g>
		<g>
			<path style="fill:#233862;" d="M2174.148,476.62c0,0,36.664,52.487,67.798,63.905c31.133,11.419,45.853,4.246,45.853,4.246
				s-14.852-20.45-19.75-48.59c-1.443-8.294-7.201-15.201-15.15-17.976C2230.576,470.413,2187.535,458.477,2174.148,476.62z"/>
		</g>
		<g>
			<g>
				<path style="fill:#FFB27D;" d="M2164.576,887.505c0,0-14.004,12.081-17.99,13.055c-3.986,0.974-6.253,0.072-6.253,0.072
					l10.208-11.959L2164.576,887.505z"/>
			</g>
			<g>
				<path style="fill:#FFB27D;" d="M2170.125,873.269l-35.463,9.152c0,0,0.92,2.525,4.933,3.148
					c4.014,0.622,14.784-1.017,14.784-1.017L2170.125,873.269z"/>
			</g>
			<g>
				<path style="fill:#FFB27D;" d="M2230.252,892.815c0,0-50.622-22.521-60.127-19.547c-9.503,2.975-33.871,15.881-37.694,21.313
					c-3.823,5.433,19.958-0.675,27.384-1.139c4.811-0.302,15.977,6.3,21.521,9.483c23.332,13.397,39.53,12.208,39.53,12.208
					L2230.252,892.815z"/>
			</g>
		</g>
		<g>
			<path style="fill:#AEC3FF;" d="M2252.323,630.89c0,0,71.626,13.442,84.895,33.295c28.95,43.313,90.578,222.783,56.065,246.849
				c-38.868,27.102-176.895,7.091-176.895,7.091s-4.594-21.469,1.798-31.855c6.391-10.386,110.243-27.162,115.037-31.954
				c4.793-4.794-47.353-74.105-41.798-87.368C2309.219,724.451,2252.323,630.89,2252.323,630.89z"/>
		</g>
		<g>
			<path style="fill:#8FAEF2;" d="M2121.817,854.552c-16.413,17.435-44.636,30.907-72.61,39.939
				c-0.156-7.381,11.078-18.538,33.143-26.615c30.716-11.234,30.334-76.014,38.277-76.845
				C2128.559,790.199,2121.817,854.552,2121.817,854.552z"/>
		</g>
	</g>
	<g>
		<path style="fill:#AA5943;" d="M866.264,932.801c-12.279,23.762-36.884,23.975-55.926,19.684
			c-10.123-1.225-20.392-4.64-29.671-8.707c-0.112,1.518-0.235,3-0.349,4.449c-0.471,5.92-0.909,11.313-1.313,16.076
			c13.391,5.708,24.671,14.785,31.03,27.446c6.74,13.438,6.167,52.331,1.932,100.922h-325.49
			c-5.27-52.982-6.584-96.124,0.595-110.415c6.134-12.234,16.122-20.481,27.964-25.368c-31.458-10.099-54.904-26.828-66.544-38.759
			V779.167c5.764-31.84,13.762-61.847,23.48-80.014c8.584-16.043,17.773-27.221,26.311-35.018
			c8.539-7.786,16.448-12.179,22.469-14.661c0,0,29.346-13.101,78.015-13.943c3.337-0.056,6.729-0.101,10.167-0.123
			c0-0.012,0-0.023,0-0.023c4.246-9.617,10.19-19.313,6.842-55.162c-1.349-1.314-2.607-2.719-3.786-4.258
			c-0.057,0.045-0.102,0.102-0.157,0.146c-0.865,0.695-12.166,5.707-38.073-24.773H715.18c0.742,17.099-1.482,30.94-9.089,34.21
			c0,0-7.595,2.73-18.683,5.09c0.292,4.381,0.865,12.313,1.898,23.289c0.079,0.843,0.798,10.673,1.438,19.492
			c0.124,1.651,0.012,3.28-0.303,4.842c13.615,1.124,34.873,3.528,55.488,8.527c19.479,4.472,35.58,10.515,45.611,18.525
			c0.371,0.304,0.731,0.663,1.067,1.057c0.956,0.753,1.888,1.527,2.765,2.314C826.796,697.153,887.991,890.783,866.264,932.801z"/>
	</g>
	<g>
		<g>
			<path style="fill:#0C1B2D;" d="M850.147,1327.432c0,0-28.752,50.938-19.912,60.226c0,0,35.165,21.941,135.087,35.426
				c7.098,0.958,14.275-16.159-6.612-27.868c-20.887-11.709-54.775-25.194-50.724-56.559
				C912.036,1307.29,850.147,1327.432,850.147,1327.432z"/>
		</g>
		<g>
			<polygon style="fill:#2B478B;" points="809.167,1064.266 554.212,1082.287 554.212,961.354 809.167,961.354 			"/>
		</g>
		<g>
			<path style="fill:#2B478B;" d="M909.512,1354.916c0,0-68.412,2.2-67.468-24.25c6.613-185.023,55.707-234.015,55.707-234.015
				l-47.233-1.322c0,0,0,0-0.01,0l-43.719-1.218l-82.952-2.314l15.748-47.102l7.066-21.161l19.261-57.634l76.698,1.152
				c0,0,150.373,9.598,174.849,56.859C1046.263,1079.524,909.512,1354.916,909.512,1354.916z"/>
		</g>
		<g style="opacity:0.5;">
			<path style="fill:#12253F;" d="M850.518,1095.329l-43.729-1.218c0,0-50.956-28.218-67.204-49.416
				c-7.341-9.561-30.419-17.584-15.748-21.051c3.902-0.916,43.256,5.986,49.242,7.487
				C848.657,1050.096,850.518,1095.329,850.518,1095.329z"/>
		</g>
		<g>
			<path style="fill:#13243D;" d="M778.714,1385.428c0,0-4.703,54.419,6.801,60.083c0,0,85.813,14.257,139.188-0.286
				c7.804-2.127,4.28-22.145-19.365-25.921c-23.646-3.775-68.308-14.982-75.338-45.816
				C822.969,1342.652,778.714,1385.428,778.714,1385.428z"/>
		</g>
		<g>
			<path style="fill:#2B478B;" d="M820.155,1073.642c-6.935-43.825-132.594-71.899-173.228-81.991
				c-9.114-2.264-14.662-3.447-14.662-3.447l-76.676-25.478c-17.17,43.457-17.117,112.589,0,133.925
				c17.118,21.334,129.043,21.365,156.107,31.311c27.063,9.944-27.619,42.446,57.658,247.608
				c11.299,27.183,65.261,6.934,65.261,6.934S828.645,1127.299,820.155,1073.642z"/>
		</g>
		<g>
			<path style="fill:#AEC3FF;" d="M709.281,616.423c0,0,88.125,2.897,119.552,31.357c31.427,28.461,92.615,222.096,70.894,264.108
				c-21.721,42.012-81.921,10.43-81.921,10.43l-23.458-48.107l-3.281-145.541L709.281,616.423z"/>
		</g>
		<g>
			<path style="fill:#AEC3FF;" d="M814.866,913.367c-0.369,4.912-0.737,9.579-1.087,13.943c-1.908,24.032-3.326,39.279-3.326,39.279
				s-26.554,31.25-135.087,46.015c-106.643,14.501-143.174,6.319-143.174,6.319l2.125-37.73l11.006-195.084l8.889-157.552
				c0,0,29.341-13.093,78.012-13.943c68.347-1.171,161,4.392,192.778,29.795C844.944,660.337,821.865,821.696,814.866,913.367z"/>
		</g>
		<g>
			<path style="fill:#FFB27D;" d="M724.205,612.508c0.644,8.858-5.321,16.846-13.782,18.23c-35.5,5.807-68.656-14.85-68.029-16.267
				c4.715-10.653,11.512-21.396,5.405-67.789c-0.082-0.607,4.349,0.255,11.042,1.894c19.914,4.893,59.949,16.671,61.722,17.194
				c0.04,0,0.068,0,0.068,0s0.49,9.757,2.14,27.248C722.844,593.854,723.563,603.685,724.205,612.508z"/>
		</g>
		<g>
			<path style="fill:#ED975D;" d="M722.771,593.019c-29.731,7.069-74.1-38.461-74.1-38.461c3.244-2.503,6.652-4.482,10.17-5.982
				c19.914,4.893,59.949,16.671,61.722,17.194c0.04,0,0.068,0,0.068,0S721.121,575.528,722.771,593.019z"/>
		</g>
		<g>
			<path style="fill:#FFB27D;" d="M739.551,564.64c0,0-13.687,4.912-31.137,7.258c-25.517,3.445-59.069,1.414-69.609-29.459
				c-17.755-51.965-40.435-83.123,11.813-104.342c27.968-11.36,45.861-11.963,58.015-7.627c10.559,3.74,16.783,11.216,21.496,18.609
				C740.273,464.985,760.684,555.543,739.551,564.64z"/>
		</g>
		<g>
			<path style="fill:#163560;" d="M734.086,417.697c11.801,2.868,17.11,21.457,5.876,29.188
				c-20.138,13.857-44.751,8.419-53.818,12.452c-12.993,5.772-15.328,27.567-15.562,34.485c-0.234,6.932-1.764,10.984-19.409,6.839
				c-2.891-0.676-7.105-0.107-9.773,1.693c-7.055,4.763,6.019,25.872,8.839,30.428c0,0,4.06,15.079-4.95,22.42
				c-1.09,0.877-18.79,8.614-61.445-56.664c-6.704-10.246-13.105-33.331-2.751-55.555c10.341-22.226,42.327-49.748,80.71-49.751
				C692.172,393.228,709.111,411.628,734.086,417.697z"/>
		</g>
		<g>
			<path style="fill:#FFFFFF;" d="M739.946,531.092c0,0,1.094,6.727-14.547,12.095c0,0-13.132,4.509-15.528-2.39
				C709.871,540.797,720.301,530.863,739.946,531.092z"/>
		</g>
		<g>
			<g>
				<path style="fill:#FFFFFF;" d="M709.281,515.11l-30.944,9.245c-4.242,1.268-8.749-1.166-10.017-5.407l-5.775-19.333
					c-1.268-4.242,1.166-8.748,5.407-10.017l30.944-9.245c4.242-1.268,8.749,1.166,10.016,5.407l5.777,19.334
					C715.956,509.336,713.522,513.844,709.281,515.11z"/>
			</g>
			<g>
				<path style="fill:#FFFFFF;" d="M760.298,499.867l-26.26,7.847c-3.975,1.188-8.197-1.093-9.386-5.066l-6.065-20.305
					c-1.188-3.976,1.092-8.198,5.066-9.386l26.26-7.846c3.975-1.188,8.198,1.093,9.385,5.066l6.067,20.306
					C766.553,494.457,764.272,498.681,760.298,499.867z"/>
			</g>
			<g>
				
					<rect x="669.526" y="478.867" transform="matrix(0.9581 -0.2863 0.2863 0.9581 -108.6636 221.8567)" style="fill:#FFFFFF;" width="69.773" height="7.376"/>
			</g>
			<g>
				<path style="fill:#474FEA;" d="M703.015,511.242l-21.56,6.442c-2.956,0.883-6.095-0.813-6.979-3.769l-4.023-13.47
					c-0.884-2.956,0.813-6.097,3.767-6.979l21.562-6.441c2.955-0.883,6.096,0.812,6.978,3.768l4.025,13.472
					C707.665,507.219,705.971,510.359,703.015,511.242z"/>
			</g>
			<g>
				<path style="fill:#F96058;" d="M755.128,495.673l-19.417,5.801c-2.834,0.847-5.848-0.78-6.693-3.614l-4.156-13.909
					c-0.847-2.835,0.779-5.847,3.614-6.694l19.416-5.801c2.835-0.847,5.847,0.78,6.693,3.614l4.156,13.909
					C759.588,491.814,757.961,494.825,755.128,495.673z"/>
			</g>
		</g>
		<g>
			<path style="fill:#8CAAEA;" d="M616.646,978.559l-21.539,21.719c-26.131-3.477-46.006-10.127-60.79-19.083l11.006-195.084
				c13.924-21.633,25.44-35.803,25.44-35.803C581.815,855.809,616.646,978.559,616.646,978.559z"/>
		</g>
		<g>
			<path style="fill:#8CAAEA;" d="M814.866,913.371c-0.37,4.91-0.74,9.572-1.089,13.943l-53.219,16.031v-69.374l22.783,24.356
				L814.866,913.371z"/>
		</g>
		<g>
			<path style="fill:#FFFFFF;" d="M662.644,494.744l-22.827,9.611c0,0-0.767,0.628-0.499,4.227c0.109,1.482,1.179,4.751,1.179,4.751
				l23.963-7.308v-11.281H662.644z"/>
		</g>
		<g>
			<path style="fill:#FFB27D;" d="M659.749,511.014c-0.562-0.562-3.558-16.052-18.35-10.46c-14.793,5.592-1.498,25.252,9.175,27.313
				C661.246,529.926,659.749,511.014,659.749,511.014z"/>
		</g>
		<g>
			<path style="fill:#8CAAEA;" d="M791.481,860.089c0,0,37.32-13.184,23.091-60.691c0,0-8.334,30.305-44.987,30.346
				C732.933,829.782,791.481,860.089,791.481,860.089z"/>
		</g>
		<g>
			<g>
				<path style="fill:#FDFEFF;" d="M767.587,774.848c-5.044-2.394-11.231-2.308-16.189,0.259c-1.078-1.854-2.136-3.73-3.191-5.584
					c-5.973,1.789-9.767,8.903-7.892,14.854c0.948,2.997,3.04,5.54,3.881,8.558c0.819,3.041-0.431,7.116-3.558,7.525
					c-3.729,0-4.808-5.023-5.152-8.732c-0.345-3.729-3.342-8.516-6.576-6.662c0.346-6.748,0.669-13.496,1.014-20.244
					c-6.058-2.415-13.323-1.639-18.714,2.048c1.94-3.838,2.371-8.43,1.185-12.548c-3.858-1.832-7.804-3.708-12.052-3.988
					c-4.248-0.28-8.925,1.358-10.995,5.088c-2.049,3.73-0.216,9.4,3.967,10.22c-5.174,1.185-10.889,2.738-13.711,7.244
					c-2.825,4.505,0.517,12.289,5.69,11.104c-4.355,2.544-8.71,5.109-13.065,7.652c3.537,1.812,6.145,5.348,6.793,9.25
					c-5.585-2.048-12.527,1.078-14.684,6.641c-2.351-5.477-2.394-11.88-0.086-17.377c1.767-4.248,4.118-10.564-0.172-12.269
					c-1.273-0.496-2.717-0.259-4.054,0.043c-8.688,1.876-17.119,5.024-24.881,9.336c-3.966,17.959,10.996,35.919,28.654,41.051
					c17.656,5.109,36.65,0.409,53.791-6.253c17.226-6.684,37.255-11.858,53.598-20.31c17.657-9.12-0.518-24.471-4.054-16.084
					C767.351,784.679,768.99,775.515,767.587,774.848L767.587,774.848z"/>
			</g>
			<g>
				<polygon style="fill:#C1514C;" points="793.525,798.844 624.689,798.844 624.689,1028.089 793.525,1028.089 793.525,798.844 
									"/>
			</g>
			<g>
				<path style="fill:#FDFEFF;" d="M667.657,748.156c0.045-0.733,0.088-1.466,0.131-2.199c3.901-1.789,8.494-2.587,12.461-0.948
					c3.945,1.617,6.813,6.252,5.455,10.306c-1.358,4.053-7.653,5.713-10.197,2.285c2.607,3.902,3.448,9.292,0.97,13.281
					c-2.458,4.009-8.71,5.477-12.074,2.22c-3.298-3.19-2.521-8.559-1.486-13.021c-3.903,1.293-8.41,1.207-11.858-1.014
					c-3.449-2.221-5.455-6.834-3.945-10.65c1.939-4.894,8.063-6.403,13.302-6.64c2.804-0.109,6.684,1.056,6.254,3.837
					L667.657,748.156L667.657,748.156z"/>
			</g>
			<g>
				<path style="fill:#FDFEFF;" d="M730.376,752.835c-0.323,0.646-0.669,1.294-0.992,1.962c-4.27,0.13-8.817-0.948-11.815-3.989
					c-2.997-3.062-3.816-8.43-0.992-11.642c2.847-3.191,9.271-2.264,10.285,1.897c-0.885-4.614,0.474-9.897,4.311-12.613
					c3.838-2.694,10.154-1.617,11.986,2.716c1.768,4.205-1.057,8.841-3.751,12.549c4.097,0.345,8.215,2.199,10.521,5.584
					c2.307,3.385,2.328,8.43-0.561,11.34c-3.686,3.752-9.917,2.738-14.833,0.884c-2.631-0.97-5.735-3.578-4.248-5.971
					L730.376,752.835L730.376,752.835z"/>
			</g>
			<g>
				<rect x="614.791" y="798.844" style="fill:#060633;" width="186.934" height="16.101"/>
			</g>
			<g>
				<rect x="646.602" y="814.945" style="fill:#FFFFFF;" width="26.391" height="213.144"/>
			</g>
			<g>
				<rect x="694.601" y="814.945" style="fill:#FFFFFF;" width="26.391" height="213.144"/>
			</g>
			<g>
				<rect x="742.599" y="814.945" style="fill:#FFFFFF;" width="26.392" height="213.144"/>
			</g>
		</g>
		<g>
			<path style="fill:#FFB27D;" d="M587.069,988.079c0,0,25.207,40.182,38.428,48.041c8.988,5.344,49.754,4.371,53.119-5.548
				c2.357-6.95-21.621-5.872-25.051-7.772c-6.306-3.493-8.049-10.633-6.831-13.198c1.219-2.565,20.447,16.521,20.521,9.746
				c0.075-6.776-16.82-26.326-21.553-29.621c-4.73-3.295-23.953-5.228-29.061-11.164
				C611.533,972.624,587.069,988.079,587.069,988.079z"/>
		</g>
		<g>
			<path style="fill:#AEC3FF;" d="M565.68,625.398c0,0-33.099,2.125-60.245,52.848c-27.145,50.722-36.26,134.364-25.515,201.661
				c3.255,20.385,25.311,69.522,115.185,120.366c0,0,25.578-14.676,21.537-21.711c0,0-52.552-94.29-52.96-137.813
				c-0.528-56.102,6.864-83.452,9.615-111.785C576.049,700.63,565.68,625.398,565.68,625.398z"/>
		</g>
		<g>
			<path style="fill:#FFB27D;" d="M794.778,889.351c3.308-6.636,3.398-14.414,0.389-21.19c-3.834-8.631-9.467-20.637-12.968-25.038
				c-5.71-7.178-12.445-27.495-17.291-24.246c-4.847,3.25,1.78,17.734-2.256,22.455c-4.038,4.722-44.805-10.758-48.231-5.193
				c-3.427,5.565-4.158,24.089,10.293,31.624c14.45,7.535,50.12,26.51,58.629,30.571
				C787.854,900.487,791.894,895.139,794.778,889.351z"/>
		</g>
		<g>
			<path style="fill:#AEC3FF;" d="M791.481,860.089c0,0-14.359,27.226-11.737,43.024c0,0,49.355,37.109,84.635,27.299
				c35.278-9.81-27.713-70.323-27.713-70.323H791.481z"/>
		</g>
	</g>
	<g>
		<path style="fill:#AA5943;" d="M1553.521,865.82c1.135-1.697,1.73-2.742,1.73-2.742c-17.133-50.634-63.757-69.722-63.757-69.722
			c-5.719-4.359-21.94-7.954-41.894-10.011c0.102-8.571-0.742-22.771-1.506-33.681c10.673-7.112,19.189-18.055,24.155-31.232
			c10.458-7.83,13.818-20.661,19.244-32.559c8.539-18.717,3.82-77.518-14.447-85.743c-18.268-8.223-35.659-1.887-35.659-1.887
			c2.247-3.741,8.549-5.427,8.549-5.427c-14.29-6.179-49.735,3.932-79.17,24.347c0,0.011-0.011,0.011-0.011,0.011
			c-16.302,11.302-21.817,29.098-23.054,45.275c-1.012,13.032,0.764,25.02,1.932,31.727c2.618,15.044,20.279,31.692,20.279,31.692
			h0.011c5.438,10.584,13.325,19.268,22.762,25.02c-1.034,9.662-2.27,22.953-2.27,31.244c-17.459,1.146-33.198,3.842-43.377,8.494
			c-3.281,1.022-46.186,15.503-56.016,80.473c0,0,1.797,6.079,9.673,12.584c-5.538,31.3-9.538,71.441,1.494,90.057
			c7.066,11.942,20.739,21.694,35.299,29.289l-0.236,24.401c-24.749,12.111-29.828,37.637-26.243,65.24h233.422
			c14.932-38.692,19.818-81.542-21.48-96.73c-0.472-0.169-0.943-0.326-1.415-0.483c0.022-31.569,0.045-72.699-0.202-100.741
			c0.865-0.383,1.707-0.787,2.539-1.202l-0.506,3.258C1523.368,896.771,1569.34,890.346,1553.521,865.82z M1337.94,956.765
			c-0.394-1.202-0.642-2.37-0.687-3.493c-0.37-8.393,0.259-24.459,1.102-40.041L1337.94,956.765z"/>
	</g>
	<g>
		<g>
			<path style="fill:#2C3A64;" d="M1516.56,685.874c-8.538,18.729-11.919,39.76-45.994,39.995c-34.063,0.226-75.587,0-75.587,0
				s-17.661-16.648-20.279-31.692c-1.168-6.707-2.943-18.694-1.932-31.727c1.236-16.178,6.752-33.974,23.054-45.275
				c0,0,0.011,0,0.011-0.011c29.435-20.415,64.881-30.525,79.171-24.347c0,0-6.303,1.686-8.55,5.427c0,0,17.392-6.336,35.659,1.887
				C1520.38,608.356,1525.099,667.157,1516.56,685.874z"/>
		</g>
		<g>
			<path style="fill:#12253F;" d="M1385.622,979.671c0,0-32.257,79.466-39.459,127.867c-1.748,11.746,9.228,9.128,17.003,9.128
				h158.656c8.705,0,40.661-9.869,39.545-23.254c-3.93-47.124-23.781-90.65-36.188-109.285
				C1506.684,956.348,1385.622,979.671,1385.622,979.671z"/>
		</g>
		<g>
			<path style="fill:#AEC3FF;" d="M1363.769,878.059c0,0-24.716-65.873,3.371-84.704c28.086-18.831,132.851-12.626,149.421,0
				c16.569,12.625,28.086,56.401,29.21,71.026c1.123,14.624,0.809,125.857,0.809,164.055c0,0-72.911,47.327-184.309,4.22
				L1363.769,878.059z"/>
		</g>
		<g>
			<g>
				<path style="fill:#FFB27D;" d="M1419.134,738.86c0,0-5.595,44.643-2.937,50.377c6.213,13.396,51.492,13.107,57.747,1.328
					c2.427-4.57-1.946-56.133-1.946-56.133L1419.134,738.86z"/>
			</g>
			<g>
				<path style="fill:#E8945B;" d="M1417.565,750.146c0,0,9.19,16.564,25.324,16.678c22.928,0.161,31.055-20.678,31.055-20.678
					L1417.565,750.146z"/>
			</g>
		</g>
		<g>
			<ellipse style="fill:#FFB27D;" cx="1444.508" cy="691.766" rx="57.603" ry="66.758"/>
		</g>
		<g>
			<g>
				<path style="fill:#FFFFFF;" d="M1432.707,707.265h-33.82c-4.635,0-8.427-3.794-8.427-8.429v-21.129
					c0-4.636,3.792-8.429,8.427-8.429h33.82c4.635,0,8.428,3.793,8.428,8.429v21.129
					C1441.135,703.471,1437.342,707.265,1432.707,707.265z"/>
			</g>
			<g>
				<path style="fill:#FFFFFF;" d="M1488.463,707.265h-28.699c-4.344,0-7.897-3.555-7.897-7.897v-22.191
					c0-4.343,3.554-7.897,7.897-7.897h28.699c4.344,0,7.897,3.555,7.897,7.897v22.191
					C1496.36,703.71,1492.807,707.265,1488.463,707.265z"/>
			</g>
			<g>
				<rect x="1401.049" y="669.278" style="fill:#FFFFFF;" width="73.064" height="7.725"/>
			</g>
			<g>
				<path style="fill:#474FEA;" d="M1427.579,701.506h-23.563c-3.23,0-5.873-2.644-5.873-5.873V680.91
					c0-3.229,2.643-5.872,5.873-5.872h23.563c3.229,0,5.872,2.643,5.872,5.872v14.723
					C1433.451,698.862,1430.809,701.506,1427.579,701.506z"/>
			</g>
			<g>
				<path style="fill:#F96058;" d="M1484.533,701.506h-21.221c-3.098,0-5.632-2.536-5.632-5.634v-15.201
					c0-3.098,2.534-5.633,5.632-5.633h21.221c3.098,0,5.633,2.535,5.633,5.633v15.201
					C1490.166,698.97,1487.631,701.506,1484.533,701.506z"/>
			</g>
		</g>
		<g>
			<path style="fill:#FFFFFF;" d="M1423.688,727.607c-1.37,0.228,3.167,10.744,20.896,10.767c14.681,0.02,17.864-9.875,17.864-9.875
				S1449.96,723.229,1423.688,727.607z"/>
		</g>
		<g>
			<g>
				<path style="fill:#FDFEFF;" d="M1493.802,870.16c-4.085-1.938-9.097-1.868-13.112,0.21c-0.873-1.502-1.729-3.021-2.584-4.522
					c-4.836,1.449-7.908,7.211-6.391,12.03c0.769,2.427,2.462,4.486,3.143,6.932c0.664,2.461-0.348,5.761-2.881,6.093
					c-3.021,0-3.893-4.068-4.172-7.071c-0.279-3.02-2.706-6.897-5.325-5.395c0.279-5.465,0.541-10.931,0.82-16.395
					c-4.905-1.956-10.79-1.327-15.155,1.658c1.571-3.107,1.921-6.826,0.961-10.161c-3.126-1.484-6.32-3.004-9.76-3.231
					c-3.44-0.227-7.229,1.101-8.904,4.121c-1.66,3.021-0.176,7.612,3.212,8.275c-4.19,0.96-8.817,2.217-11.104,5.866
					c-2.288,3.649,0.418,9.952,4.608,8.992c-3.526,2.06-7.054,4.138-10.581,6.198c2.864,1.466,4.977,4.329,5.501,7.49
					c-4.522-1.658-10.145,0.873-11.891,5.377c-1.902-4.435-1.938-9.619-0.07-14.072c1.433-3.439,3.335-8.555-0.139-9.935
					c-1.031-0.401-2.2-0.21-3.282,0.036c-7.036,1.518-13.864,4.066-20.149,7.559c-3.212,14.544,8.904,29.088,23.205,33.243
					c14.299,4.139,29.681,0.332,43.561-5.063c13.951-5.413,30.17-9.604,43.405-16.447c14.3-7.386-0.42-19.817-3.283-13.025
					C1493.61,878.122,1494.938,870.702,1493.802,870.16L1493.802,870.16z"/>
			</g>
			<g>
				<polygon style="fill:#F96058;" points="1514.806,889.594 1378.079,889.594 1378.079,1075.241 1514.806,1075.241 
					1514.806,889.594 				"/>
			</g>
			<g>
				<path style="fill:#FDFEFF;" d="M1412.877,848.546c0.035-0.595,0.069-1.188,0.104-1.781c3.16-1.45,6.879-2.095,10.092-0.768
					c3.194,1.31,5.517,5.063,4.416,8.346c-1.1,3.282-6.197,4.627-8.258,1.852c2.113,3.159,2.794,7.525,0.786,10.754
					c-1.99,3.248-7.054,4.435-9.778,1.799c-2.671-2.584-2.042-6.931-1.203-10.546c-3.161,1.048-6.811,0.979-9.604-0.82
					c-2.794-1.798-4.418-5.535-3.195-8.625c1.571-3.963,6.53-5.185,10.772-5.377c2.271-0.088,5.413,0.855,5.064,3.106
					L1412.877,848.546L1412.877,848.546z"/>
			</g>
			<g>
				<path style="fill:#FDFEFF;" d="M1463.667,852.334c-0.263,0.524-0.542,1.048-0.804,1.59c-3.457,0.103-7.141-0.77-9.568-3.231
					c-2.426-2.479-3.09-6.826-0.802-9.428c2.304-2.584,7.507-1.833,8.327,1.536c-0.716-3.735,0.384-8.014,3.492-10.213
					c3.108-2.184,8.223-1.311,9.707,2.199c1.433,3.404-0.855,7.158-3.037,10.161c3.316,0.28,6.651,1.781,8.52,4.523
					c1.869,2.741,1.886,6.826-0.454,9.184c-2.985,3.038-8.03,2.218-12.012,0.716c-2.13-0.785-4.644-2.898-3.439-4.836
					L1463.667,852.334L1463.667,852.334z"/>
			</g>
			<g>
				<rect x="1370.063" y="889.594" style="fill:#060633;" width="151.382" height="13.039"/>
			</g>
			<g>
				<rect x="1395.825" y="902.633" style="fill:#FFFFFF;" width="21.372" height="172.608"/>
			</g>
			<g>
				<rect x="1434.695" y="902.633" style="fill:#FFFFFF;" width="21.372" height="172.608"/>
			</g>
			<g>
				<rect x="1473.565" y="902.633" style="fill:#FFFFFF;" width="21.372" height="172.608"/>
			</g>
		</g>
		<g>
			<path style="fill:#EA9F6C;" d="M1409.591,1260.523c0,0,61.172-225.477,99.071-242.346c37.9-16.868,63.958,10.916,60.008,49.186
				s-119.288,204.852-119.288,204.852L1409.591,1260.523z"/>
		</g>
		<g>
			<g>
				<path style="fill:#E3F2FF;" d="M1411.074,1217.632c0,0,24.491,17.891,58.277,22.845l-42.041,81.168l-29.663-36.201
					L1411.074,1217.632z"/>
			</g>
			<g>
				<path style="fill:#12253F;" d="M1397.647,1285.443c0,0-18.944,23.163-23.406,32.863c-4.464,9.701,15.666,21.034,28.543,27.045
					s22.278,0.989,27.086-12.253c4.81-13.242,7.612-31.093,7.612-31.093L1397.647,1285.443z"/>
			</g>
			<g>
				<path style="fill:#12253F;" d="M1401.232,1289.819c0,0,0.784-9.811,8.554-9.026c7.77,0.783,20.305,6.857,21.506,11.864
					c1.2,5.007-1.257,10.476-1.257,10.476L1401.232,1289.819z"/>
			</g>
			<g>
				<path style="fill:#FDFEFF;" d="M1424.091,1312.252c-13.212-12.415-26.074-13.492-26.203-13.501l0.083-1.121
					c0.132,0.01,13.392,1.119,26.889,13.802L1424.091,1312.252z"/>
			</g>
			<g>
				<path style="fill:#FDFEFF;" d="M1421.038,1319.055c-13.191-12.395-26.074-13.492-26.203-13.501l0.083-1.121
					c0.132,0.01,13.391,1.119,26.889,13.803L1421.038,1319.055z"/>
			</g>
		</g>
		<g>
			<path style="fill:#233F77;" d="M1444.249,1131.376c0,0,32.161-161.761,103.771-135.431
				c81.726,30.051-17.391,168.465-17.391,168.465S1472.493,1164.12,1444.249,1131.376z"/>
		</g>
		<g>
			<path style="fill:#FFB27D;" d="M1493.745,1295.544c0,0-55.011-227.059-92.438-244.952c-37.427-17.895-64.231,9.17-61.324,47.532
				c2.907,38.363,113.667,208.023,113.667,208.023L1493.745,1295.544z"/>
		</g>
		<g>
			<path style="fill:#2B478B;" d="M1462.615,1165.502c0.541,0.034-28.038-173.005-100.045-138.206
				c-68.695,33.198,12.797,168.875,12.797,168.875S1433.49,1197.465,1462.615,1165.502z"/>
		</g>
		<g>
			<path style="fill:#FFB27D;" d="M1335.129,840.979c0,0-27.328,99.898-7.873,132.762c19.455,32.863,89.021,49.246,89.021,49.246
				l2.886-17.454c0,0-55.987-32.791-56.844-52.265c-0.855-19.475,3.696-80.358,3.696-80.358L1335.129,840.979z"/>
		</g>
		<g>
			<path style="fill:#FFB27D;" d="M1558.584,831.301c0,0,42.198,84.071,80.434,94.624c12.867,3.552,74.523,1.124,74.523,1.124
				l2.94,19.714c0,0-90.771,27.384-114.363,10.169c-23.593-17.217-53.677-60.162-53.677-60.162L1558.584,831.301z"/>
		</g>
		<g>
			<path style="fill:#AEC3FF;" d="M1372.32,790.565c0,0-46,12.97-56.227,80.532c0,0,6.852,23.316,52.871,27.511L1372.32,790.565z"/>
		</g>
		<g>
			<path style="fill:#AEC3FF;" d="M1516.561,793.354c0,0,46.624,19.086,63.764,69.724c0,0-18.929,33.034-48.785,35.53l2.436-20.925
				L1516.561,793.354z"/>
		</g>
		<g>
			<path style="fill:#FFB27D;" d="M1419.163,984.119c0,0,10.048-6.514,17.069-5.952c7.021,0.562,17.682-2.503,17.454-0.034
				c-0.228,2.469-11.72,3.698-9.438,5.986c2.282,2.286,23.269,1.735,22.101,5.704c-3.727,12.664-9.965,9.69-22.101,11.749
				c-12.136,2.059-27.972,0-27.972,0L1419.163,984.119z"/>
		</g>
		<g>
			<path style="fill:#FFB27D;" d="M1726.823,951.443c0,0,14.992-6.07,20.89-4.385c5.898,1.685,7.021,11.796,0,15.727
				c-7.021,3.933-10.392,7.864-30.613,5.337L1726.823,951.443z"/>
		</g>
		<g>
			<g>
				<path style="fill:#FDFEFF;" d="M1416.756,1247.688c0,0,30.084-3.857,58.016-23.5l25.311,87.836l-46.432-5.876l-18.845-28.963
					L1416.756,1247.688z"/>
			</g>
			<g>
				<path style="fill:#12253F;" d="M1453.65,1306.147c0,0,2.182,29.844,5.613,39.954c3.432,10.111,25.839,4.494,39.321,0
					c13.481-4.493,16.852-14.604,11.234-27.524s-15.86-27.806-15.86-27.806L1453.65,1306.147z"/>
			</g>
			<g>
				<path style="fill:#12253F;" d="M1459.264,1306.858c0,0-6.18-7.661,0-12.436c6.179-4.775,19.456-8.988,23.771-6.18
					c4.314,2.809,6.293,8.469,6.293,8.469L1459.264,1306.858z"/>
			</g>
			<g>
				<path style="fill:#FDFEFF;" d="M1462.979,1315.642l-0.711-0.87c0.104-0.084,10.49-8.397,29.012-8.475l0.006,1.123
					C1473.156,1307.495,1463.078,1315.56,1462.979,1315.642z"/>
			</g>
			<g>
				<path style="fill:#FDFEFF;" d="M1465.441,1322.68l-0.712-0.869c0.104-0.085,10.49-8.399,29.013-8.477l0.006,1.123
					C1475.619,1314.533,1465.541,1322.598,1465.441,1322.68z"/>
			</g>
		</g>
		<g>
			<g>
				<polygon style="fill:#FFFFFF;" points="1740.561,876.836 1735.773,875.206 1752.25,826.825 1775.746,814.307 1778.125,818.771 
					1756.395,830.349 				"/>
			</g>
			<g>
				<path style="fill:#8C9DF4;" d="M1708.179,972.054h40.01c3.109,0,5.684-2.419,5.877-5.521l5.686-91.411h-62.107l4.655,91.344
					C1702.458,969.598,1705.043,972.054,1708.179,972.054z"/>
			</g>
			<g>
				<path style="fill:#FFFFFF;" d="M1696.64,880.642h65.181c2.094,0,3.791-1.696,3.791-3.791v-3.315
					c0-2.093-1.697-3.791-3.791-3.791h-65.181c-2.093,0-3.79,1.698-3.79,3.791v3.315
					C1692.85,878.945,1694.547,880.642,1696.64,880.642z"/>
			</g>
		</g>
		<g>
			<path style="fill:#FFB27D;" d="M1758.577,922.891c0,0-16.849-1.854-14.32,9.886c2.528,11.741,11.788,18.201,14.32,10.898
				C1761.109,936.372,1762.771,922.94,1758.577,922.891z"/>
		</g>
		<g>
			<path style="fill:#2C3A64;" d="M1506.898,638.318c0,0-9.46,18.817-14.583,16.2c-5.112-2.607-6.674-0.473-18.391,9.639
				c-11.718,10.111-50.354-5.897-60.465-10.111c-10.111-4.212-19.942,11.235-22.414,12.809c0,0-10.504-2.326-18.278-4.404
				c1.236-16.178,6.752-33.974,23.054-45.275c0,0,0.011,0,0.011-0.011c26.345-3.281,67.397-7.527,70.138-8.809
				C1469.981,606.49,1506.898,638.318,1506.898,638.318z"/>
		</g>
	</g>
	<g>
		<path style="fill:#12253F;" d="M461.765,988.921h-89.234c-8.879,0-16.078-7.198-16.078-16.077v-43.269
			c0-8.879,7.198-16.077,16.078-16.077h89.234c8.878,0,16.076,7.198,16.076,16.077v43.269
			C477.841,981.723,470.643,988.921,461.765,988.921z"/>
	</g>
	<g>
		<rect x="356.453" y="944.322" style="fill:#12253F;" width="100.451" height="325.625"/>
	</g>
	<g>
		<path style="fill:#2B478B;" d="M1136.021,970.51h-96.24c-8.078,0-14.628-6.55-14.628-14.629v-31.137
			c0-8.079,6.55-14.629,14.628-14.629h96.24c8.078,0,14.627,6.55,14.627,14.629v31.137
			C1150.648,963.96,1144.1,970.51,1136.021,970.51z"/>
	</g>
	<g>
		<path style="fill:#2B478B;" d="M1607.653,1047.339h92.159c9.205,0,16.669-7.462,16.669-16.669v-45.078
			c0-9.207-7.464-16.67-16.669-16.67h-92.159c-9.205,0-16.668,7.463-16.668,16.67v45.078
			C1590.985,1039.877,1598.448,1047.339,1607.653,1047.339z"/>
	</g>
	<g>
		<path style="fill:#2B478B;" d="M1733.768,1047.339h92.158c9.207,0,16.669-7.462,16.669-16.669v-45.078
			c0-9.207-7.462-16.67-16.669-16.67h-92.158c-9.206,0-16.668,7.463-16.668,16.67v45.078
			C1717.1,1039.877,1724.562,1047.339,1733.768,1047.339z"/>
	</g>
	<g>
		<path style="fill:#AEC3FF;" d="M1425.697,450.15c0-6.51,5.276-11.786,11.785-11.786s11.785,5.276,11.785,11.786
			c0,6.508-5.276,11.785-11.785,11.785S1425.697,456.658,1425.697,450.15z"/>
	</g>
	<g>
		<path style="fill:#FFFFFF;" d="M2170.564,576.063c0,0,1.017,6.162,8.402,7.804c7.387,1.642,15.182-4.998,15.182-4.998
			S2182.402,574.422,2170.564,576.063z"/>
	</g>
</g>
</svg>
